# xmcd CD database file
#
# Track frame offsets:
#	150
#	14951
#	26314
#	50671
#	64209
#	80569
#	93166
#	114520
#	127974
#	148993
#	167668
#	184543
#	199975
#	211629
#
# Disc length: 3120 seconds
#
# Revision: 0
# Processed by: cddbd v1.5.2PL0 Copyright (c) Steve Scherf et al.
# Submitted via: CDex 1.51
#
DISCID=c40c2e0e
DTITLE=Terry Wolf and Back Porch Swing - Arizona
DYEAR=2011
DGENRE=Country
TTITLE0=I Ride a Horse
TTITLE1=Back Porch Swing
TTITLE2=Arizona
TTITLE3=Better Things to Do
TTITLE4=Livin' Outside the Law
TTITLE5=What Did I Say Last Night?
TTITLE6=Don't Ask Me How
TTITLE7=Giddyup, Whoa Back
TTITLE8=Revenuer's Comin'
TTITLE9=One Beer
TTITLE10=Welcome Back, Jack
TTITLE11=This is the Time
TTITLE12=Shakin' the Shack
TTITLE13=Where Did You Go?
EXTD=YEAR: 2011
EXTT0=
EXTT1=
EXTT2=
EXTT3=
EXTT4=
EXTT5=
EXTT6=
EXTT7=
EXTT8=
EXTT9=
EXTT10=
EXTT11=
EXTT12=
EXTT13=
PLAYORDER=
